<svg width="104" height="104" viewBox="0 0 104 104" fill="none" xmlns="http://www.w3.org/2000/svg">
<rect width="104" height="104" rx="8" fill="#9871F5"/>
<path d="M32.5 33.8H44.2C46.2687 33.8 48.2526 34.6523 49.7154 36.1692C51.1782 37.6862 52 39.7436 52 41.8889V70.2C52 68.5911 51.3837 67.048 50.2866 65.9103C49.1895 64.7725 47.7015 64.1334 46.15 64.1334H32.5V33.8Z" stroke="white" stroke-width="3" stroke-linecap="round" stroke-linejoin="round"/>
<path d="M71.5 33.8H59.8C57.7313 33.8 55.7474 34.6523 54.2846 36.1692C52.8218 37.6862 52 39.7436 52 41.8889V70.2C52 68.5911 52.6163 67.048 53.7134 65.9103C54.8105 64.7725 56.2985 64.1334 57.85 64.1334H71.5V33.8Z" stroke="white" stroke-width="3" stroke-linecap="round" stroke-linejoin="round"/>
</svg>
