<svg width="198" height="42" viewBox="0 0 198 42" fill="none" xmlns="http://www.w3.org/2000/svg">
<path d="M13.3868 24.576C11.5094 23.936 9.80275 23.296 8.26675 22.656C6.73075 21.9733 5.40808 21.1627 4.29875 20.224C3.18942 19.2853 2.31475 18.176 1.67475 16.896C1.07742 15.5733 0.77875 13.9733 0.77875 12.096C0.77875 8.46933 2.16542 5.568 4.93875 3.392C7.75475 1.216 11.6801 0.127998 16.7148 0.127998C18.5494 0.127998 20.2561 0.255998 21.8348 0.511997C23.4134 0.767999 24.7574 1.17333 25.8668 1.728C27.0188 2.24 27.9148 2.92266 28.5548 3.776C29.1948 4.58666 29.5148 5.54666 29.5148 6.656C29.5148 7.76533 29.2588 8.72533 28.7468 9.536C28.2348 10.304 27.6161 10.9653 26.8908 11.52C25.9521 10.9227 24.6934 10.4107 23.1148 9.984C21.5361 9.51467 19.8081 9.28 17.9308 9.28C16.0108 9.28 14.6028 9.55733 13.7068 10.112C12.8108 10.624 12.3628 11.2853 12.3628 12.096C12.3628 12.736 12.6401 13.2693 13.1948 13.696C13.7494 14.08 14.5814 14.4427 15.6908 14.784L19.0828 15.872C23.0934 17.152 26.1654 18.7947 28.2988 20.8C30.4748 22.7627 31.5628 25.4507 31.5628 28.864C31.5628 32.4907 30.1334 35.4347 27.2748 37.696C24.4161 39.9147 20.2134 41.024 14.6667 41.024C12.7041 41.024 10.8694 40.8533 9.16275 40.512C7.49875 40.2133 6.02675 39.7653 4.74675 39.168C3.50942 38.528 2.52808 37.76 1.80275 36.864C1.12008 35.9253 0.77875 34.8587 0.77875 33.664C0.77875 32.4267 1.14142 31.3813 1.86675 30.528C2.59208 29.632 3.38142 28.9493 4.23475 28.48C5.42942 29.4187 6.88008 30.2293 8.58675 30.912C10.3361 31.5947 12.2348 31.936 14.2828 31.936C16.3734 31.936 17.8454 31.616 18.6988 30.976C19.5521 30.336 19.9788 29.5893 19.9788 28.736C19.9788 27.8827 19.6374 27.2427 18.9548 26.816C18.2721 26.3467 17.3121 25.8987 16.0748 25.472L13.3868 24.576ZM37.6288 7.168C37.6288 5.33333 38.1621 3.88266 39.2288 2.816C40.2954 1.74933 41.7461 1.216 43.5808 1.216H64.7008C64.9994 1.68533 65.2554 2.304 65.4688 3.072C65.7248 3.84 65.8528 4.65067 65.8528 5.504C65.8528 7.12533 65.4901 8.27733 64.7648 8.96C64.0821 9.64267 63.1648 9.984 62.0128 9.984H48.5088V15.936H62.9088C63.2074 16.4053 63.4634 17.024 63.6768 17.792C63.9328 18.5173 64.0608 19.3067 64.0608 20.16C64.0608 21.7813 63.7194 22.9333 63.0368 23.616C62.3541 24.2987 61.4368 24.64 60.2848 24.64H48.5088V31.36H64.9568C65.2554 31.8293 65.5114 32.448 65.7248 33.216C65.9808 33.984 66.1088 34.7947 66.1088 35.648C66.1088 37.2693 65.7461 38.4427 65.0208 39.168C64.3381 39.8507 63.4208 40.192 62.2688 40.192H43.5808C41.7461 40.192 40.2954 39.6587 39.2288 38.592C38.1621 37.5253 37.6288 36.0747 37.6288 34.24V7.168ZM107.827 38.656C107.23 39.2533 106.355 39.7013 105.203 40C104.094 40.3413 102.75 40.512 101.171 40.512C99.5926 40.512 98.0993 40.2773 96.6913 39.808C95.2833 39.3387 94.1313 38.208 93.2353 36.416L86.8993 23.488C86.2593 22.1653 85.6833 20.928 85.1713 19.776C84.6593 18.5813 84.1046 17.216 83.5073 15.68L83.1233 15.744C83.2939 18.048 83.3793 20.3947 83.3793 22.784C83.4219 25.1733 83.4433 27.52 83.4433 29.824V39.744C82.9739 39.872 82.2486 40 81.2673 40.128C80.3286 40.256 79.3899 40.32 78.4513 40.32C77.5126 40.32 76.6806 40.256 75.9553 40.128C75.2299 40 74.6326 39.744 74.1633 39.36C73.6939 38.976 73.3313 38.464 73.0753 37.824C72.8193 37.1413 72.6913 36.2667 72.6913 35.2V3.2C73.2886 2.34666 74.2059 1.70667 75.4433 1.28C76.6806 0.853333 78.0033 0.639999 79.4113 0.639999C80.9899 0.639999 82.4833 0.895999 83.8913 1.408C85.3419 1.87733 86.4939 2.98667 87.3472 4.736L93.7473 17.664C94.3873 18.9867 94.9633 20.2453 95.4753 21.44C95.9873 22.592 96.5419 23.936 97.1393 25.472L97.4593 25.408C97.2886 23.104 97.1819 20.8 97.1393 18.496C97.0966 16.192 97.0753 13.888 97.0753 11.584V1.216C97.5446 1.088 98.2486 0.959998 99.1873 0.831997C100.169 0.703999 101.129 0.639999 102.067 0.639999C103.945 0.639999 105.374 0.981332 106.355 1.664C107.337 2.304 107.827 3.66933 107.827 5.76V38.656ZM127.137 24.576C125.259 23.936 123.553 23.296 122.017 22.656C120.481 21.9733 119.158 21.1627 118.049 20.224C116.939 19.2853 116.065 18.176 115.425 16.896C114.827 15.5733 114.529 13.9733 114.529 12.096C114.529 8.46933 115.915 5.568 118.689 3.392C121.505 1.216 125.43 0.127998 130.465 0.127998C132.299 0.127998 134.006 0.255998 135.585 0.511997C137.163 0.767999 138.507 1.17333 139.617 1.728C140.769 2.24 141.665 2.92266 142.305 3.776C142.945 4.58666 143.265 5.54666 143.265 6.656C143.265 7.76533 143.009 8.72533 142.497 9.536C141.985 10.304 141.366 10.9653 140.641 11.52C139.702 10.9227 138.443 10.4107 136.865 9.984C135.286 9.51467 133.558 9.28 131.681 9.28C129.761 9.28 128.353 9.55733 127.457 10.112C126.561 10.624 126.113 11.2853 126.113 12.096C126.113 12.736 126.39 13.2693 126.945 13.696C127.499 14.08 128.331 14.4427 129.441 14.784L132.833 15.872C136.843 17.152 139.915 18.7947 142.049 20.8C144.225 22.7627 145.313 25.4507 145.313 28.864C145.313 32.4907 143.883 35.4347 141.025 37.696C138.166 39.9147 133.963 41.024 128.417 41.024C126.454 41.024 124.619 40.8533 122.913 40.512C121.249 40.2133 119.777 39.7653 118.497 39.168C117.259 38.528 116.278 37.76 115.553 36.864C114.87 35.9253 114.529 34.8587 114.529 33.664C114.529 32.4267 114.891 31.3813 115.617 30.528C116.342 29.632 117.131 28.9493 117.985 28.48C119.179 29.4187 120.63 30.2293 122.337 30.912C124.086 31.5947 125.985 31.936 128.033 31.936C130.123 31.936 131.595 31.616 132.449 30.976C133.302 30.336 133.729 29.5893 133.729 28.736C133.729 27.8827 133.387 27.2427 132.705 26.816C132.022 26.3467 131.062 25.8987 129.825 25.472L127.137 24.576ZM151.379 7.168C151.379 5.33333 151.912 3.88266 152.979 2.816C154.045 1.74933 155.496 1.216 157.331 1.216H178.451C178.749 1.68533 179.005 2.304 179.219 3.072C179.475 3.84 179.603 4.65067 179.603 5.504C179.603 7.12533 179.24 8.27733 178.515 8.96C177.832 9.64267 176.915 9.984 175.763 9.984H162.259V15.936H176.659C176.957 16.4053 177.213 17.024 177.427 17.792C177.683 18.5173 177.811 19.3067 177.811 20.16C177.811 21.7813 177.469 22.9333 176.787 23.616C176.104 24.2987 175.187 24.64 174.035 24.64H162.259V31.36H178.707C179.005 31.8293 179.261 32.448 179.475 33.216C179.731 33.984 179.859 34.7947 179.859 35.648C179.859 37.2693 179.496 38.4427 178.771 39.168C178.088 39.8507 177.171 40.192 176.019 40.192H157.331C155.496 40.192 154.045 39.6587 152.979 38.592C151.912 37.5253 151.379 36.0747 151.379 34.24V7.168ZM197.641 39.744C197.172 39.872 196.425 40 195.401 40.128C194.42 40.256 193.439 40.32 192.457 40.32C191.476 40.32 190.601 40.2347 189.833 40.064C189.108 39.936 188.489 39.68 187.977 39.296C187.465 38.912 187.081 38.3787 186.825 37.696C186.569 37.0133 186.441 36.1173 186.441 35.008V1.216C186.911 1.13066 187.657 1.024 188.681 0.896C189.705 0.725333 190.687 0.639999 191.625 0.639999C192.607 0.639999 193.46 0.725333 194.185 0.896C194.953 1.024 195.593 1.28 196.105 1.664C196.617 2.048 197.001 2.58133 197.257 3.264C197.513 3.94667 197.641 4.84267 197.641 5.952V39.744Z" fill="white"/>
<path d="M13.3868 24.576L13.0641 25.5225L13.0705 25.5247L13.3868 24.576ZM8.26675 22.656L7.86061 23.5698L7.87132 23.5746L7.88213 23.5791L8.26675 22.656ZM1.67475 16.896L0.76338 17.3076L0.7715 17.3256L0.780323 17.3432L1.67475 16.896ZM4.93875 3.392L4.32729 2.60069L4.32146 2.60526L4.93875 3.392ZM21.8348 0.511997L21.9948 -0.475108L21.9948 -0.475108L21.8348 0.511997ZM25.8668 1.728L25.4195 2.62242L25.4399 2.63258L25.4606 2.64181L25.8668 1.728ZM28.5548 3.776L27.7548 4.376L27.7622 4.38591L27.7699 4.39564L28.5548 3.776ZM28.7468 9.536L29.5788 10.0907L29.5856 10.0804L29.5922 10.07L28.7468 9.536ZM26.8908 11.52L26.3539 12.3637L26.9433 12.7387L27.4982 12.3144L26.8908 11.52ZM23.1148 9.984L22.8298 10.9425L22.8418 10.9461L22.8538 10.9494L23.1148 9.984ZM13.7068 10.112L14.2029 10.9802L14.2182 10.9715L14.2331 10.9623L13.7068 10.112ZM13.1948 13.696L12.585 14.4886L12.6049 14.5039L12.6255 14.5182L13.1948 13.696ZM15.6908 14.784L15.9962 13.8317L15.9848 13.8282L15.6908 14.784ZM19.0828 15.872L18.7773 16.8242L18.7787 16.8247L19.0828 15.872ZM28.2988 20.8L27.6138 21.5286L27.6213 21.5357L27.629 21.5426L28.2988 20.8ZM27.2748 37.696L27.8879 38.486L27.8952 38.4803L27.2748 37.696ZM9.16275 40.512L9.35887 39.5314L9.34916 39.5295L9.33941 39.5277L9.16275 40.512ZM4.74675 39.168L4.28733 40.0562L4.30541 40.0656L4.32386 40.0742L4.74675 39.168ZM1.80275 36.864L0.994014 37.4522L1.00923 37.4731L1.02551 37.4932L1.80275 36.864ZM1.86675 30.528L2.62869 31.1756L2.63645 31.1665L2.644 31.1572L1.86675 30.528ZM4.23475 28.48L4.85257 27.6937L4.33243 27.285L3.75283 27.6038L4.23475 28.48ZM8.58675 30.912L8.21535 31.8405L8.22321 31.8436L8.58675 30.912ZM18.6988 30.976L19.2988 31.776L19.2988 31.776L18.6988 30.976ZM18.9548 26.816L18.3882 27.64L18.4062 27.6524L18.4248 27.664L18.9548 26.816ZM16.0748 25.472L16.4008 24.5266L16.391 24.5233L16.0748 25.472ZM13.7094 23.6295C11.8492 22.9953 10.1636 22.363 8.65137 21.7329L7.88213 23.5791C9.44193 24.229 11.1697 24.8767 13.0641 25.5225L13.7094 23.6295ZM8.67289 21.7422C7.2103 21.0921 5.97134 20.3293 4.94469 19.4606L3.65281 20.9874C4.84483 21.996 6.2512 22.8545 7.86061 23.5698L8.67289 21.7422ZM4.94469 19.4606C3.9371 18.608 3.14766 17.6057 2.56918 16.4488L0.780323 17.3432C1.48184 18.7462 2.44173 19.9626 3.65281 20.9874L4.94469 19.4606ZM2.58612 16.4844C2.06168 15.3232 1.77875 13.8714 1.77875 12.096H-0.22125C-0.22125 14.0753 0.093153 15.8235 0.76338 17.3076L2.58612 16.4844ZM1.77875 12.096C1.77875 8.76612 3.03231 6.15889 5.55604 4.17874L4.32146 2.60526C1.29852 4.97711 -0.22125 8.17255 -0.22125 12.096H1.77875ZM5.5502 4.18328C8.13144 2.18868 11.8119 1.128 16.7148 1.128V-0.872002C11.5483 -0.872002 7.37806 0.243312 4.3273 2.60071L5.5502 4.18328ZM16.7148 1.128C18.5034 1.128 20.156 1.25283 21.6747 1.4991L21.9948 -0.475108C20.3562 -0.740832 18.5954 -0.872002 16.7148 -0.872002V1.128ZM21.6747 1.4991C23.1808 1.74334 24.4225 2.1239 25.4195 2.62242L26.314 0.833569C25.0924 0.222766 23.646 -0.207343 21.9948 -0.475108L21.6747 1.4991ZM25.4606 2.64181C26.4851 3.09715 27.2343 3.68206 27.7548 4.376L29.3548 3.176C28.5952 2.16327 27.5524 1.38284 26.2729 0.814186L25.4606 2.64181ZM27.7699 4.39564C28.2599 5.01633 28.5148 5.75372 28.5148 6.656H30.5148C30.5148 5.33961 30.1296 4.15699 29.3396 3.15635L27.7699 4.39564ZM28.5148 6.656C28.5148 7.6066 28.2973 8.37497 27.9013 9.00201L29.5922 10.07C30.2202 9.0757 30.5148 7.92407 30.5148 6.656H28.5148ZM27.9147 8.9813C27.4632 9.65859 26.9201 10.2387 26.2833 10.7256L27.4982 12.3144C28.3121 11.692 29.0063 10.9494 29.5788 10.0907L27.9147 8.9813ZM27.4276 10.6763C26.3738 10.0057 25.0106 9.46051 23.3757 9.01864L22.8538 10.9494C24.3763 11.3608 25.5304 11.8396 26.3539 12.3637L27.4276 10.6763ZM23.3997 9.02546C21.7167 8.5251 19.8913 8.28 17.9308 8.28V10.28C19.7248 10.28 21.3555 10.5042 22.8298 10.9425L23.3997 9.02546ZM17.9308 8.28C15.9559 8.28 14.3177 8.55769 13.1804 9.26173L14.2331 10.9623C14.8878 10.557 16.0656 10.28 17.9308 10.28V8.28ZM13.2106 9.24376C12.1017 9.87743 11.3628 10.8257 11.3628 12.096H13.3628C13.3628 11.7449 13.5198 11.3706 14.2029 10.9802L13.2106 9.24376ZM11.3628 12.096C11.3628 13.0784 11.8107 13.893 12.585 14.4886L13.8045 12.9034C13.4694 12.6457 13.3628 12.3936 13.3628 12.096H11.3628ZM12.6255 14.5182C13.3039 14.9878 14.2491 15.3867 15.3967 15.7398L15.9848 13.8282C14.9137 13.4986 14.1949 13.1722 13.764 12.8738L12.6255 14.5182ZM15.3853 15.7362L18.7773 16.8242L19.3882 14.9198L15.9962 13.8318L15.3853 15.7362ZM18.7787 16.8247C22.705 18.0777 25.626 19.6601 27.6138 21.5286L28.9837 20.0714C26.7048 17.9292 23.4818 16.2263 19.3868 14.9193L18.7787 16.8247ZM27.629 21.5426C29.5595 23.2838 30.5628 25.6825 30.5628 28.864H32.5628C32.5628 25.2188 31.39 22.2415 28.9685 20.0574L27.629 21.5426ZM30.5628 28.864C30.5628 32.1832 29.2747 34.8389 26.6543 36.9117L27.8952 38.4803C30.9922 36.0304 32.5628 32.7982 32.5628 28.864H30.5628ZM26.6616 36.906C24.05 38.933 20.1033 40.024 14.6667 40.024V42.024C20.3235 42.024 24.7822 40.8964 27.8879 38.486L26.6616 36.906ZM14.6667 40.024C12.7617 40.024 10.9934 39.8583 9.35887 39.5314L8.96663 41.4926C10.7454 41.8483 12.6464 42.024 14.6667 42.024V40.024ZM9.33941 39.5277C7.74438 39.2414 6.3577 38.8162 5.16964 38.2618L4.32386 40.0742C5.6958 40.7144 7.25312 41.1852 8.98609 41.4963L9.33941 39.5277ZM5.20617 38.2798C4.06649 37.6903 3.20227 37.0035 2.57999 36.2348L1.02551 37.4932C1.85389 38.5165 2.95234 39.3657 4.28733 40.0562L5.20617 38.2798ZM2.61149 36.2758C2.05697 35.5134 1.77875 34.654 1.77875 33.664H-0.22125C-0.22125 35.0634 0.183198 36.3373 0.994014 37.4522L2.61149 36.2758ZM1.77875 33.664C1.77875 32.6373 2.07345 31.8289 2.62869 31.1756L1.10481 29.8804C0.209379 30.9338 -0.22125 32.216 -0.22125 33.664H1.77875ZM2.644 31.1572C3.30252 30.3437 3.99567 29.7528 4.71667 29.3562L3.75283 27.6038C2.76717 28.1459 1.88165 28.9203 1.08951 29.8988L2.644 31.1572ZM3.61693 29.2663C4.90031 30.2747 6.43807 31.1296 8.21536 31.8405L8.95814 29.9835C7.3221 29.3291 5.95852 28.5626 4.85257 27.6937L3.61693 29.2663ZM8.22321 31.8436C10.0985 32.5754 12.1217 32.936 14.2828 32.936V30.936C12.3478 30.936 10.5737 30.6139 8.95029 29.9804L8.22321 31.8436ZM14.2828 32.936C16.4143 32.936 18.171 32.6218 19.2988 31.776L18.0988 30.176C17.5198 30.6102 16.3325 30.936 14.2828 30.936V32.936ZM19.2988 31.776C20.3341 30.9995 20.9788 29.9822 20.9788 28.736H18.9788C18.9788 29.1965 18.7701 29.6725 18.0988 30.176L19.2988 31.776ZM20.9788 28.736C20.9788 27.5628 20.4804 26.5903 19.4847 25.968L18.4248 27.664C18.7945 27.8951 18.9788 28.2025 18.9788 28.736H20.9788ZM19.5213 25.992C18.7342 25.4508 17.6801 24.9678 16.4007 24.5266L15.7488 26.4174C16.944 26.8295 17.81 27.2425 18.3882 27.64L19.5213 25.992ZM16.391 24.5233L13.703 23.6273L13.0705 25.5247L15.7585 26.4207L16.391 24.5233ZM64.7008 1.216L65.5444 0.679123L65.2497 0.216H64.7008V1.216ZM65.4688 3.072L64.5052 3.33964L64.512 3.36412L64.5201 3.38823L65.4688 3.072ZM64.7648 8.96L64.0794 8.2318L64.0684 8.24218L64.0576 8.25289L64.7648 8.96ZM48.5088 9.984V8.984H47.5088V9.984H48.5088ZM48.5088 15.936H47.5088V16.936H48.5088V15.936ZM62.9088 15.936L63.7524 15.3991L63.4577 14.936H62.9088V15.936ZM63.6768 17.792L62.7132 18.0596L62.7224 18.0926L62.7338 18.1248L63.6768 17.792ZM48.5088 24.64V23.64H47.5088V24.64H48.5088ZM48.5088 31.36H47.5088V32.36H48.5088V31.36ZM64.9568 31.36L65.8004 30.8231L65.5057 30.36H64.9568V31.36ZM65.7248 33.216L64.7612 33.4836L64.768 33.5081L64.7761 33.5322L65.7248 33.216ZM65.0208 39.168L64.3136 38.4609L64.3136 38.4609L65.0208 39.168ZM39.2288 38.592L39.9359 37.8849L39.9359 37.8849L39.2288 38.592ZM38.6288 7.168C38.6288 5.53743 39.0959 4.36304 39.9359 3.52311L38.5216 2.10889C37.2282 3.40229 36.6288 5.12923 36.6288 7.168H38.6288ZM39.9359 3.52311C40.7758 2.68317 41.9502 2.216 43.5808 2.216V0.216C41.542 0.216 39.815 0.815492 38.5216 2.10889L39.9359 3.52311ZM43.5808 2.216H64.7008V0.216H43.5808V2.216ZM63.8571 1.75288C64.0853 2.11142 64.3079 2.62934 64.5052 3.33964L66.4323 2.80436C66.2029 1.97866 65.9136 1.25924 65.5444 0.679123L63.8571 1.75288ZM64.5201 3.38823C64.7403 4.04886 64.8528 4.7523 64.8528 5.504H66.8528C66.8528 4.54903 66.7092 3.63114 66.4174 2.75577L64.5201 3.38823ZM64.8528 5.504C64.8528 7.01649 64.5083 7.82814 64.0794 8.2318L65.4501 9.6882C66.4719 8.72652 66.8528 7.23417 66.8528 5.504H64.8528ZM64.0576 8.25289C63.5981 8.71244 62.9545 8.984 62.0128 8.984V10.984C63.375 10.984 64.5661 10.5729 65.4719 9.66711L64.0576 8.25289ZM62.0128 8.984H48.5088V10.984H62.0128V8.984ZM47.5088 9.984V15.936H49.5088V9.984H47.5088ZM48.5088 16.936H62.9088V14.936H48.5088V16.936ZM62.0651 16.4729C62.2933 16.8314 62.5159 17.3493 62.7132 18.0596L64.6403 17.5244C64.4109 16.6987 64.1216 15.9792 63.7524 15.3991L62.0651 16.4729ZM62.7338 18.1248C62.9481 18.7322 63.0608 19.4077 63.0608 20.16H65.0608C65.0608 19.2056 64.9174 18.3025 64.6197 17.4592L62.7338 18.1248ZM63.0608 20.16C63.0608 21.6859 62.7317 22.5069 62.3296 22.9089L63.7439 24.3231C64.7072 23.3598 65.0608 21.8767 65.0608 20.16H63.0608ZM62.3296 22.9089C61.8701 23.3684 61.2265 23.64 60.2848 23.64V25.64C61.647 25.64 62.8381 25.2289 63.7439 24.3231L62.3296 22.9089ZM60.2848 23.64H48.5088V25.64H60.2848V23.64ZM47.5088 24.64V31.36H49.5088V24.64H47.5088ZM48.5088 32.36H64.9568V30.36H48.5088V32.36ZM64.1131 31.8969C64.3413 32.2554 64.5639 32.7733 64.7612 33.4836L66.6883 32.9484C66.4589 32.1227 66.1696 31.4032 65.8004 30.8231L64.1131 31.8969ZM64.7761 33.5322C64.9963 34.1929 65.1088 34.8963 65.1088 35.648H67.1088C67.1088 34.693 66.9652 33.7751 66.6734 32.8998L64.7761 33.5322ZM65.1088 35.648C65.1088 37.1531 64.7674 38.0072 64.3136 38.4609L65.7279 39.8751C66.7248 38.8782 67.1088 37.3856 67.1088 35.648H65.1088ZM64.3136 38.4609C63.8541 38.9204 63.2105 39.192 62.2688 39.192V41.192C63.631 41.192 64.8221 40.7809 65.7279 39.8751L64.3136 38.4609ZM62.2688 39.192H43.5808V41.192H62.2688V39.192ZM43.5808 39.192C41.9502 39.192 40.7758 38.7248 39.9359 37.8849L38.5216 39.2991C39.815 40.5925 41.542 41.192 43.5808 41.192V39.192ZM39.9359 37.8849C39.0959 37.045 38.6288 35.8706 38.6288 34.24H36.6288C36.6288 36.2788 37.2282 38.0057 38.5216 39.2991L39.9359 37.8849ZM38.6288 34.24V7.168H36.6288V34.24H38.6288ZM107.827 38.656L108.534 39.3631L108.827 39.0702V38.656H107.827ZM105.203 40L104.952 39.032L104.931 39.0376L104.909 39.0442L105.203 40ZM96.6913 39.808L97.0075 38.8593L97.0075 38.8593L96.6913 39.808ZM93.2353 36.416L92.3373 36.8561L92.3408 36.8632L93.2353 36.416ZM86.8993 23.488L85.9991 23.9236L86.0013 23.9281L86.8993 23.488ZM85.1713 19.776L84.252 20.17L84.2574 20.1821L85.1713 19.776ZM83.5073 15.68L84.4393 15.3176L84.1446 14.56L83.3428 14.6936L83.5073 15.68ZM83.1233 15.744L82.9588 14.7576L82.0586 14.9077L82.126 15.8179L83.1233 15.744ZM83.3793 22.784H82.3793V22.7929L82.3794 22.8019L83.3793 22.784ZM83.4433 39.744L83.7064 40.7088L84.4433 40.5078V39.744H83.4433ZM81.2673 40.128L81.1379 39.1364L81.1321 39.1372L81.2673 40.128ZM75.9553 40.128L76.129 39.1432L75.9553 40.128ZM74.1633 39.36L74.7965 38.586L74.1633 39.36ZM73.0753 37.824L72.1389 38.1751L72.1427 38.1853L72.1468 38.1954L73.0753 37.824ZM72.6913 3.2L71.872 2.62653L71.6913 2.88477V3.2H72.6913ZM75.4433 1.28L75.1173 0.334626L75.1173 0.334626L75.4433 1.28ZM83.8913 1.408L83.5495 2.34779L83.5664 2.35392L83.5834 2.35944L83.8913 1.408ZM87.3472 4.736L86.4485 5.17443L86.4511 5.17966L87.3472 4.736ZM93.7473 17.664L94.6474 17.2284L94.6434 17.2203L93.7473 17.664ZM95.4753 21.44L94.556 21.834L94.5614 21.8461L95.4753 21.44ZM97.1393 25.472L96.2072 25.8344L96.5117 26.6173L97.3354 26.4526L97.1393 25.472ZM97.4593 25.408L97.6554 26.3886L98.5218 26.2153L98.4565 25.3341L97.4593 25.408ZM97.1393 18.496L98.1391 18.4775L98.1391 18.4775L97.1393 18.496ZM97.0753 1.216L96.8121 0.251236L96.0753 0.452205V1.216H97.0753ZM99.1873 0.831997L99.0579 -0.159621L99.0521 -0.158833L99.1873 0.831997ZM106.355 1.664L105.784 2.4849L105.796 2.49344L105.809 2.50161L106.355 1.664ZM107.12 37.9489C106.69 38.3789 105.999 38.7607 104.952 39.032L105.454 40.968C106.712 40.642 107.77 40.1278 108.534 39.3631L107.12 37.9489ZM104.909 39.0442C103.922 39.3478 102.684 39.512 101.171 39.512V41.512C102.816 41.512 104.265 41.3348 105.497 40.9558L104.909 39.0442ZM101.171 39.512C99.6932 39.512 98.3072 39.2926 97.0075 38.8593L96.375 40.7567C97.8913 41.2621 99.492 41.512 101.171 41.512V39.512ZM97.0075 38.8593C95.9291 38.4999 94.9498 37.6089 94.1297 35.9688L92.3408 36.8632C93.3127 38.8071 94.6374 40.1775 96.375 40.7567L97.0075 38.8593ZM94.1332 35.9759L87.7972 23.0479L86.0013 23.9281L92.3373 36.8561L94.1332 35.9759ZM87.7994 23.0524C87.1634 21.738 86.592 20.5105 86.0851 19.3699L84.2574 20.1821C84.7745 21.3455 85.3551 22.5927 85.9991 23.9236L87.7994 23.0524ZM86.0904 19.3821C85.5839 18.2001 85.0335 16.8456 84.4393 15.3176L82.5752 16.0424C83.1757 17.5864 83.7346 18.9625 84.2521 20.1699L86.0904 19.3821ZM83.3428 14.6936L82.9588 14.7576L83.2877 16.7304L83.6717 16.6664L83.3428 14.6936ZM82.126 15.8179C82.2948 18.0965 82.3793 20.4185 82.3793 22.784H84.3793C84.3793 20.3709 84.2931 17.9995 84.1205 15.6701L82.126 15.8179ZM82.3794 22.8019C82.422 25.1855 82.4433 27.5262 82.4433 29.824H84.4433C84.4433 27.5138 84.4219 25.1612 84.3791 22.7661L82.3794 22.8019ZM82.4433 29.824V39.744H84.4433V29.824H82.4433ZM83.1801 38.7792C82.7797 38.8885 82.1102 39.0096 81.1379 39.1364L81.3966 41.1196C82.3869 40.9904 83.1682 40.8555 83.7064 40.7088L83.1801 38.7792ZM81.1321 39.1372C80.2378 39.2591 79.3443 39.32 78.4513 39.32V41.32C79.4355 41.32 80.4193 41.2529 81.4024 41.1188L81.1321 39.1372ZM78.4513 39.32C77.5559 39.32 76.7839 39.2588 76.129 39.1432L75.7815 41.1128C76.5773 41.2532 77.4693 41.32 78.4513 41.32V39.32ZM76.129 39.1432C75.5364 39.0386 75.1076 38.8406 74.7965 38.586L73.53 40.134C74.1576 40.6474 74.9235 40.9614 75.7815 41.1128L76.129 39.1432ZM74.7965 38.586C74.475 38.323 74.2056 37.9574 74.0037 37.4526L72.1468 38.1954C72.4569 38.9706 72.9128 39.629 73.53 40.134L74.7965 38.586ZM74.0116 37.4729C73.8124 36.9417 73.6913 36.1973 73.6913 35.2H71.6913C71.6913 36.3361 71.8261 37.341 72.1389 38.1751L74.0116 37.4729ZM73.6913 35.2V3.2H71.6913V35.2H73.6913ZM73.5105 3.77346C73.9588 3.13301 74.6798 2.60105 75.7692 2.22537L75.1173 0.334626C73.7321 0.812282 72.6184 1.56032 71.872 2.62653L73.5105 3.77346ZM75.7692 2.22537C76.894 1.83752 78.1058 1.64 79.4113 1.64V-0.360001C77.9007 -0.360001 76.4671 -0.130853 75.1173 0.334626L75.7692 2.22537ZM79.4113 1.64C80.8797 1.64 82.2568 1.87773 83.5495 2.34779L84.233 0.468203C82.7097 -0.0857297 81.1002 -0.360001 79.4113 -0.360001V1.64ZM83.5834 2.35944C84.7088 2.72354 85.6795 3.59803 86.4485 5.17442L88.246 4.29758C87.3083 2.37531 85.975 1.03113 84.1991 0.456553L83.5834 2.35944ZM86.4511 5.17966L92.8511 18.1077L94.6434 17.2203L88.2434 4.29234L86.4511 5.17966ZM92.8471 18.0996C93.4813 19.4102 94.0508 20.6549 94.5561 21.8339L96.3944 21.0461C95.8757 19.8357 95.2932 18.5631 94.6474 17.2284L92.8471 18.0996ZM94.5614 21.8461C95.0654 22.9801 95.614 24.309 96.2072 25.8344L98.0713 25.1096C97.4698 23.563 96.9091 22.2039 96.3891 21.0339L94.5614 21.8461ZM97.3354 26.4526L97.6554 26.3886L97.2631 24.4274L96.9431 24.4914L97.3354 26.4526ZM98.4565 25.3341C98.2872 23.0485 98.1814 20.763 98.1391 18.4775L96.1394 18.5145C96.1824 20.837 96.29 23.1595 96.462 25.4819L98.4565 25.3341ZM98.1391 18.4775C98.0965 16.1797 98.0753 13.8818 98.0753 11.584H96.0753C96.0753 13.8942 96.0966 16.2043 96.1394 18.5145L98.1391 18.4775ZM98.0753 11.584V1.216H96.0753V11.584H98.0753ZM97.3384 2.18076C97.7429 2.07044 98.3946 1.94935 99.3224 1.82283L99.0521 -0.158833C98.1026 -0.0293504 97.3463 0.105559 96.8121 0.251236L97.3384 2.18076ZM99.3166 1.8236C100.257 1.70089 101.174 1.64 102.067 1.64V-0.360001C101.083 -0.360001 100.08 -0.292895 99.0579 -0.159604L99.3166 1.8236ZM102.067 1.64C103.848 1.64 105.041 1.9681 105.784 2.4849L106.926 0.843092C105.707 -0.00543343 104.041 -0.360001 102.067 -0.360001V1.64ZM105.809 2.50161C106.342 2.84954 106.827 3.74645 106.827 5.76H108.827C108.827 3.59221 108.331 1.75846 106.902 0.826387L105.809 2.50161ZM106.827 5.76V38.656H108.827V5.76H106.827ZM127.137 24.576L126.814 25.5225L126.821 25.5247L127.137 24.576ZM122.017 22.656L121.611 23.5698L121.621 23.5746L121.632 23.5791L122.017 22.656ZM115.425 16.896L114.513 17.3076L114.521 17.3256L114.53 17.3432L115.425 16.896ZM118.689 3.392L118.077 2.60069L118.071 2.60526L118.689 3.392ZM135.585 0.511997L135.745 -0.475108L135.745 -0.475108L135.585 0.511997ZM139.617 1.728L139.17 2.62242L139.19 2.63258L139.211 2.64181L139.617 1.728ZM142.305 3.776L141.505 4.376L141.512 4.38591L141.52 4.39564L142.305 3.776ZM142.497 9.536L143.329 10.0907L143.336 10.0804L143.342 10.07L142.497 9.536ZM140.641 11.52L140.104 12.3637L140.693 12.7387L141.248 12.3144L140.641 11.52ZM136.865 9.984L136.58 10.9425L136.592 10.9461L136.604 10.9494L136.865 9.984ZM127.457 10.112L127.953 10.9802L127.968 10.9715L127.983 10.9623L127.457 10.112ZM126.945 13.696L126.335 14.4886L126.355 14.5039L126.376 14.5182L126.945 13.696ZM129.441 14.784L129.746 13.8317L129.735 13.8282L129.441 14.784ZM132.833 15.872L132.527 16.8242L132.529 16.8247L132.833 15.872ZM142.049 20.8L141.364 21.5286L141.371 21.5357L141.379 21.5426L142.049 20.8ZM141.025 37.696L141.638 38.486L141.645 38.4803L141.025 37.696ZM122.913 40.512L123.109 39.5314L123.099 39.5295L123.089 39.5277L122.913 40.512ZM118.497 39.168L118.037 40.0562L118.055 40.0656L118.074 40.0742L118.497 39.168ZM115.553 36.864L114.744 37.4522L114.759 37.4731L114.776 37.4932L115.553 36.864ZM115.617 30.528L116.379 31.1756L116.386 31.1665L116.394 31.1572L115.617 30.528ZM117.985 28.48L118.603 27.6937L118.082 27.285L117.503 27.6038L117.985 28.48ZM122.337 30.912L121.965 31.8405L121.973 31.8436L122.337 30.912ZM132.449 30.976L133.049 31.776L133.049 31.776L132.449 30.976ZM132.705 26.816L132.138 27.64L132.156 27.6524L132.175 27.664L132.705 26.816ZM129.825 25.472L130.151 24.5266L130.141 24.5233L129.825 25.472ZM127.459 23.6295C125.599 22.9953 123.914 22.363 122.401 21.7329L121.632 23.5791C123.192 24.229 124.92 24.8767 126.814 25.5225L127.459 23.6295ZM122.423 21.7422C120.96 21.0921 119.721 20.3293 118.695 19.4606L117.403 20.9874C118.595 21.996 120.001 22.8545 121.611 23.5698L122.423 21.7422ZM118.695 19.4606C117.687 18.608 116.898 17.6057 116.319 16.4488L114.53 17.3432C115.232 18.7462 116.192 19.9626 117.403 20.9874L118.695 19.4606ZM116.336 16.4844C115.812 15.3232 115.529 13.8714 115.529 12.096H113.529C113.529 14.0753 113.843 15.8235 114.513 17.3076L116.336 16.4844ZM115.529 12.096C115.529 8.76612 116.782 6.15889 119.306 4.17874L118.071 2.60526C115.049 4.97711 113.529 8.17255 113.529 12.096H115.529ZM119.3 4.18328C121.881 2.18868 125.562 1.128 130.465 1.128V-0.872002C125.298 -0.872002 121.128 0.243312 118.077 2.60071L119.3 4.18328ZM130.465 1.128C132.253 1.128 133.906 1.25283 135.425 1.4991L135.745 -0.475108C134.106 -0.740832 132.345 -0.872002 130.465 -0.872002V1.128ZM135.425 1.4991C136.931 1.74334 138.172 2.1239 139.17 2.62242L140.064 0.833569C138.842 0.222766 137.396 -0.207343 135.745 -0.475108L135.425 1.4991ZM139.211 2.64181C140.235 3.09715 140.984 3.68206 141.505 4.376L143.105 3.176C142.345 2.16327 141.302 1.38284 140.023 0.814186L139.211 2.64181ZM141.52 4.39564C142.01 5.01633 142.265 5.75372 142.265 6.656H144.265C144.265 5.33961 143.88 4.15699 143.09 3.15635L141.52 4.39564ZM142.265 6.656C142.265 7.6066 142.047 8.37497 141.651 9.00201L143.342 10.07C143.97 9.0757 144.265 7.92407 144.265 6.656H142.265ZM141.665 8.9813C141.213 9.65859 140.67 10.2387 140.033 10.7256L141.248 12.3144C142.062 11.692 142.756 10.9494 143.329 10.0907L141.665 8.9813ZM141.178 10.6763C140.124 10.0057 138.761 9.46051 137.126 9.01864L136.604 10.9494C138.126 11.3608 139.28 11.8396 140.104 12.3637L141.178 10.6763ZM137.15 9.02546C135.467 8.5251 133.641 8.28 131.681 8.28V10.28C133.475 10.28 135.105 10.5042 136.58 10.9425L137.15 9.02546ZM131.681 8.28C129.706 8.28 128.068 8.55769 126.93 9.26173L127.983 10.9623C128.638 10.557 129.816 10.28 131.681 10.28V8.28ZM126.961 9.24376C125.852 9.87743 125.113 10.8257 125.113 12.096H127.113C127.113 11.7449 127.27 11.3706 127.953 10.9802L126.961 9.24376ZM125.113 12.096C125.113 13.0784 125.561 13.893 126.335 14.4886L127.554 12.9034C127.219 12.6457 127.113 12.3936 127.113 12.096H125.113ZM126.376 14.5182C127.054 14.9878 127.999 15.3867 129.147 15.7398L129.735 13.8282C128.664 13.4986 127.945 13.1722 127.514 12.8738L126.376 14.5182ZM129.135 15.7362L132.527 16.8242L133.138 14.9198L129.746 13.8318L129.135 15.7362ZM132.529 16.8247C136.455 18.0777 139.376 19.6601 141.364 21.5286L142.734 20.0714C140.455 17.9292 137.232 16.2263 133.137 14.9193L132.529 16.8247ZM141.379 21.5426C143.309 23.2838 144.313 25.6825 144.313 28.864H146.313C146.313 25.2188 145.14 22.2415 142.719 20.0574L141.379 21.5426ZM144.313 28.864C144.313 32.1832 143.025 34.8389 140.404 36.9117L141.645 38.4803C144.742 36.0304 146.313 32.7982 146.313 28.864H144.313ZM140.412 36.906C137.8 38.933 133.853 40.024 128.417 40.024V42.024C134.074 42.024 138.532 40.8964 141.638 38.486L140.412 36.906ZM128.417 40.024C126.512 40.024 124.743 39.8583 123.109 39.5314L122.717 41.4926C124.495 41.8483 126.396 42.024 128.417 42.024V40.024ZM123.089 39.5277C121.494 39.2414 120.108 38.8162 118.92 38.2618L118.074 40.0742C119.446 40.7144 121.003 41.1852 122.736 41.4963L123.089 39.5277ZM118.956 38.2798C117.816 37.6903 116.952 37.0035 116.33 36.2348L114.776 37.4932C115.604 38.5165 116.702 39.3657 118.037 40.0562L118.956 38.2798ZM116.361 36.2758C115.807 35.5134 115.529 34.654 115.529 33.664H113.529C113.529 35.0634 113.933 36.3373 114.744 37.4522L116.361 36.2758ZM115.529 33.664C115.529 32.6373 115.823 31.8289 116.379 31.1756L114.855 29.8804C113.959 30.9338 113.529 32.216 113.529 33.664H115.529ZM116.394 31.1572C117.053 30.3437 117.746 29.7528 118.467 29.3562L117.503 27.6038C116.517 28.1459 115.632 28.9203 114.84 29.8988L116.394 31.1572ZM117.367 29.2663C118.65 30.2747 120.188 31.1296 121.965 31.8405L122.708 29.9835C121.072 29.3291 119.709 28.5626 118.603 27.6937L117.367 29.2663ZM121.973 31.8436C123.849 32.5754 125.872 32.936 128.033 32.936V30.936C126.098 30.936 124.324 30.6139 122.7 29.9804L121.973 31.8436ZM128.033 32.936C130.164 32.936 131.921 32.6218 133.049 31.776L131.849 30.176C131.27 30.6102 130.083 30.936 128.033 30.936V32.936ZM133.049 31.776C134.084 30.9995 134.729 29.9822 134.729 28.736H132.729C132.729 29.1965 132.52 29.6725 131.849 30.176L133.049 31.776ZM134.729 28.736C134.729 27.5628 134.23 26.5903 133.235 25.968L132.175 27.664C132.544 27.8951 132.729 28.2025 132.729 28.736H134.729ZM133.271 25.992C132.484 25.4508 131.43 24.9678 130.151 24.5266L129.499 26.4174C130.694 26.8295 131.56 27.2425 132.138 27.64L133.271 25.992ZM130.141 24.5233L127.453 23.6273L126.821 25.5247L129.509 26.4207L130.141 24.5233ZM178.451 1.216L179.294 0.679123L179 0.216H178.451V1.216ZM179.219 3.072L178.255 3.33964L178.262 3.36412L178.27 3.38823L179.219 3.072ZM178.515 8.96L177.829 8.2318L177.818 8.24218L177.808 8.25289L178.515 8.96ZM162.259 9.984V8.984H161.259V9.984H162.259ZM162.259 15.936H161.259V16.936H162.259V15.936ZM176.659 15.936L177.502 15.3991L177.208 14.936H176.659V15.936ZM177.427 17.792L176.463 18.0596L176.472 18.0926L176.484 18.1248L177.427 17.792ZM162.259 24.64V23.64H161.259V24.64H162.259ZM162.259 31.36H161.259V32.36H162.259V31.36ZM178.707 31.36L179.55 30.8231L179.256 30.36H178.707V31.36ZM179.475 33.216L178.511 33.4836L178.518 33.5081L178.526 33.5322L179.475 33.216ZM178.771 39.168L178.064 38.4609L178.064 38.4609L178.771 39.168ZM152.979 38.592L153.686 37.8849L153.686 37.8849L152.979 38.592ZM152.379 7.168C152.379 5.53743 152.846 4.36304 153.686 3.52311L152.272 2.10889C150.978 3.40229 150.379 5.12923 150.379 7.168H152.379ZM153.686 3.52311C154.526 2.68317 155.7 2.216 157.331 2.216V0.216C155.292 0.216 153.565 0.815492 152.272 2.10889L153.686 3.52311ZM157.331 2.216H178.451V0.216H157.331V2.216ZM177.607 1.75288C177.835 2.11142 178.058 2.62934 178.255 3.33964L180.182 2.80436C179.953 1.97866 179.664 1.25924 179.294 0.679123L177.607 1.75288ZM178.27 3.38823C178.49 4.04886 178.603 4.7523 178.603 5.504H180.603C180.603 4.54903 180.459 3.63114 180.167 2.75577L178.27 3.38823ZM178.603 5.504C178.603 7.01649 178.258 7.82814 177.829 8.2318L179.2 9.6882C180.222 8.72652 180.603 7.23417 180.603 5.504H178.603ZM177.808 8.25289C177.348 8.71244 176.704 8.984 175.763 8.984V10.984C177.125 10.984 178.316 10.5729 179.222 9.66711L177.808 8.25289ZM175.763 8.984H162.259V10.984H175.763V8.984ZM161.259 9.984V15.936H163.259V9.984H161.259ZM162.259 16.936H176.659V14.936H162.259V16.936ZM175.815 16.4729C176.043 16.8314 176.266 17.3493 176.463 18.0596L178.39 17.5244C178.161 16.6987 177.872 15.9792 177.502 15.3991L175.815 16.4729ZM176.484 18.1248C176.698 18.7322 176.811 19.4077 176.811 20.16H178.811C178.811 19.2056 178.667 18.3025 178.37 17.4592L176.484 18.1248ZM176.811 20.16C176.811 21.6859 176.482 22.5069 176.08 22.9089L177.494 24.3231C178.457 23.3598 178.811 21.8767 178.811 20.16H176.811ZM176.08 22.9089C175.62 23.3684 174.976 23.64 174.035 23.64V25.64C175.397 25.64 176.588 25.2289 177.494 24.3231L176.08 22.9089ZM174.035 23.64H162.259V25.64H174.035V23.64ZM161.259 24.64V31.36H163.259V24.64H161.259ZM162.259 32.36H178.707V30.36H162.259V32.36ZM177.863 31.8969C178.091 32.2554 178.314 32.7733 178.511 33.4836L180.438 32.9484C180.209 32.1227 179.92 31.4032 179.55 30.8231L177.863 31.8969ZM178.526 33.5322C178.746 34.1929 178.859 34.8963 178.859 35.648H180.859C180.859 34.693 180.715 33.7751 180.423 32.8998L178.526 33.5322ZM178.859 35.648C178.859 37.1531 178.517 38.0072 178.064 38.4609L179.478 39.8751C180.475 38.8782 180.859 37.3856 180.859 35.648H178.859ZM178.064 38.4609C177.604 38.9204 176.96 39.192 176.019 39.192V41.192C177.381 41.192 178.572 40.7809 179.478 39.8751L178.064 38.4609ZM176.019 39.192H157.331V41.192H176.019V39.192ZM157.331 39.192C155.7 39.192 154.526 38.7248 153.686 37.8849L152.272 39.2991C153.565 40.5925 155.292 41.192 157.331 41.192V39.192ZM153.686 37.8849C152.846 37.045 152.379 35.8706 152.379 34.24H150.379C150.379 36.2788 150.978 38.0057 152.272 39.2991L153.686 37.8849ZM152.379 34.24V7.168H150.379V34.24H152.379ZM197.641 39.744L197.904 40.7088L198.641 40.5078V39.744H197.641ZM195.401 40.128L195.277 39.1357L195.272 39.1364L195.401 40.128ZM189.833 40.064L190.05 39.0878L190.029 39.083L190.007 39.0792L189.833 40.064ZM187.977 39.296L187.377 40.096L187.377 40.096L187.977 39.296ZM186.825 37.696L185.889 38.0471L185.889 38.0471L186.825 37.696ZM186.441 1.216L186.262 0.23213L185.441 0.381426V1.216H186.441ZM188.681 0.896L188.805 1.88828L188.826 1.88575L188.846 1.88239L188.681 0.896ZM194.185 0.896L193.956 1.86942L193.988 1.87697L194.021 1.88239L194.185 0.896ZM196.105 1.664L195.505 2.464L195.505 2.464L196.105 1.664ZM197.257 3.264L196.321 3.61512L196.321 3.61512L197.257 3.264ZM197.378 38.7792C196.981 38.8874 196.294 39.0086 195.277 39.1357L195.525 41.1203C196.556 40.9914 197.362 40.8566 197.904 40.7088L197.378 38.7792ZM195.272 39.1364C194.333 39.2589 193.395 39.32 192.457 39.32V41.32C193.482 41.32 194.507 41.2531 195.531 41.1196L195.272 39.1364ZM192.457 39.32C191.532 39.32 190.732 39.2393 190.05 39.0878L189.616 41.0402C190.47 41.23 191.42 41.32 192.457 41.32V39.32ZM190.007 39.0792C189.413 38.9744 188.946 38.7725 188.577 38.496L187.377 40.096C188.033 40.5875 188.803 40.8976 189.659 41.0488L190.007 39.0792ZM188.577 38.496C188.238 38.2418 187.96 37.8744 187.762 37.3449L185.889 38.0471C186.202 38.8829 186.692 39.5822 187.377 40.096L188.577 38.496ZM187.762 37.3449C187.564 36.8171 187.441 36.0535 187.441 35.008H185.441C185.441 36.1812 185.575 37.2095 185.889 38.0471L187.762 37.3449ZM187.441 35.008V1.216H185.441V35.008H187.441ZM186.62 2.19987C187.06 2.11983 187.784 2.01598 188.805 1.88828L188.557 -0.0962782C187.531 0.0320158 186.761 0.141498 186.262 0.23213L186.62 2.19987ZM188.846 1.88239C189.821 1.71984 190.747 1.64 191.625 1.64V-0.360001C190.626 -0.360001 189.59 -0.269177 188.517 -0.090394L188.846 1.88239ZM191.625 1.64C192.552 1.64 193.325 1.72096 193.956 1.86942L194.414 -0.0774171C193.595 -0.270294 192.661 -0.360001 191.625 -0.360001V1.64ZM194.021 1.88239C194.665 1.98969 195.146 2.19478 195.505 2.464L196.705 0.863998C196.04 0.365214 195.242 0.0583071 194.35 -0.0903944L194.021 1.88239ZM195.505 2.464C195.844 2.71819 196.122 3.08557 196.321 3.61512L198.194 2.91288C197.88 2.07709 197.39 1.3778 196.705 0.863998L195.505 2.464ZM196.321 3.61512C196.519 4.14287 196.641 4.90654 196.641 5.952H198.641C198.641 4.77879 198.508 3.75046 198.194 2.91288L196.321 3.61512ZM196.641 5.952V39.744H198.641V5.952H196.641Z" fill="white"/>
</svg>
